<svg width="158" height="195" viewBox="0 0 158 195" fill="none" xmlns="http://www.w3.org/2000/svg">
<path d="M157.96 0H0.570312V194.89H157.96V0Z" fill="white"/>
<path d="M157.96 174.55H0.570312V194.9H157.96V174.55Z" fill="#FF1818"/>
<path d="M37.5002 45.93L9.2002 130.82H29.6902L48.9102 70.82L58.5502 100.82H46.0802L41.1102 117.94H64.0502L68.1802 130.82H89.2602L60.9602 45.93H37.5002Z" fill="#010101"/>
<path d="M121.46 45.93H92.04V130.82H112.38V63.06H120.58C130.09 63.06 135.51 67.6 135.51 75.79C135.51 83.84 130.09 88.52 120.58 88.52H119.26V105.64H121.45C143.4 105.64 156.28 94.59 156.28 75.78C156.29 56.62 143.41 45.93 121.46 45.93Z" fill="#010101"/>
</svg>
